<svg width="20" height="20" viewBox="0 0 20 20" fill="none" xmlns="http://www.w3.org/2000/svg">
<path d="M10 6.66659V17.4999M10 6.66659C9.69856 5.42442 9.17954 4.36243 8.51061 3.61918C7.84169 2.87593 7.0539 2.48587 6.25 2.49988C5.69747 2.49988 5.16756 2.71937 4.77686 3.11007C4.38616 3.50077 4.16667 4.03068 4.16667 4.58321C4.16667 5.13574 4.38616 5.66565 4.77686 6.05635C5.16756 6.44705 5.69747 6.66654 6.25 6.66654M10 6.66659C10.3014 5.42442 10.8205 4.36243 11.4894 3.61918C12.1583 2.87593 12.9461 2.48587 13.75 2.49988C14.3025 2.49988 14.8324 2.71937 15.2231 3.11007C15.6138 3.50077 15.8333 4.03068 15.8333 4.58321C15.8333 5.13574 15.6138 5.66565 15.2231 6.05635C14.8324 6.44705 14.3025 6.66654 13.75 6.66654M15.8333 9.99992V15.8333C15.8333 16.2753 15.6577 16.6992 15.3452 17.0118C15.0326 17.3243 14.6087 17.4999 14.1667 17.4999H5.83333C5.39131 17.4999 4.96738 17.3243 4.65482 17.0118C4.34226 16.6992 4.16667 16.2753 4.16667 15.8333V9.99992M3.33333 6.66659H16.6667C17.1269 6.66659 17.5 7.03968 17.5 7.49992V9.16659C17.5 9.62682 17.1269 9.99992 16.6667 9.99992H3.33333C2.8731 9.99992 2.5 9.62682 2.5 9.16659V7.49992C2.5 7.03968 2.8731 6.66659 3.33333 6.66659Z" stroke="#A1A1AA" stroke-width="1.5" stroke-linecap="round" stroke-linejoin="round"/>
</svg>
