<svg width="80" height="80" viewBox="0 0 80 80" fill="none" xmlns="http://www.w3.org/2000/svg">
<circle cx="40" cy="40.3999" r="35" fill="#B6912D"/>
<circle cx="40" cy="40.3999" r="28.875" fill="#D7B146"/>
<path d="M46.6562 56.4741L40.001 63.1294L33.3457 56.4741L40.001 49.8188L46.6562 56.4741ZM33.3447 56.4478H23.9326V47.0356H33.3447V56.4478ZM56.0488 56.4478H46.6367V47.0356H56.0488V56.4478ZM30.5947 40.3667L23.9385 47.022L17.2832 40.3667L23.9385 33.7114L30.5947 40.3667ZM62.7178 40.3667L56.0625 47.022L49.4072 40.3667L56.0625 33.7114L62.7178 40.3667ZM33.3447 33.6978H23.9326V24.2856H33.3447V33.6978ZM46.6367 24.2856H56.0488V33.6978H46.6367V24.3247L40.001 30.9604L33.3457 24.3052L40.001 17.6499L46.6367 24.2856Z" fill="white"/>
</svg>
